HIERARCHY
ROOT mixamorig:Hips
{
	OFFSET 0.000000 201.639420 0.000000
	CHANNELS 6 Xposition Yposition Zposition Xrotation Yrotation Zrotation
	JOINT mixamorig:Spine
	{
		OFFSET 0.006200 19.524994 -2.481800
		CHANNELS 3 Xrotation Yrotation Zrotation
		JOINT mixamorig:Spine1
		{
			OFFSET -0.000900 22.835007 -2.825400
			CHANNELS 3 Xrotation Yrotation Zrotation
			JOINT mixamorig:Spine2
			{
				OFFSET -0.020600 26.552490 -3.193300
				CHANNELS 3 Xrotation Yrotation Zrotation
				JOINT mixamorig:Neck
				{
					OFFSET -0.060000 30.701813 1.352200
					CHANNELS 3 Xrotation Yrotation Zrotation
					JOINT mixamorig:Head
					{
						OFFSET -0.087200 22.547607 3.670900
						CHANNELS 3 Xrotation Yrotation Zrotation
						JOINT mixamorig:HeadTop_End
						{
							OFFSET -0.830600 40.355194 7.893500
							CHANNELS 3 Xrotation Yrotation Zrotation
							End Site
							{
								OFFSET 0.000000 30.592346 0.000000
							}
						}
						JOINT mixamorig:RightEye
						{
							OFFSET -6.302100 18.118591 16.197100
							CHANNELS 3 Xrotation Yrotation Zrotation
							End Site
							{
								OFFSET 0.000000 30.592346 0.000000
							}
						}
						JOINT mixamorig:LeftEye
						{
							OFFSET 6.741500 18.382690 16.401899
							CHANNELS 3 Xrotation Yrotation Zrotation
							End Site
							{
								OFFSET 0.000000 30.592346 0.000000
							}
						}
					}
				}
				JOINT mixamorig:LeftShoulder
				{
					OFFSET 11.924900 18.230499 1.425400
					CHANNELS 3 Xrotation Yrotation Zrotation
					JOINT mixamorig:LeftArm
					{
						OFFSET 25.435989 -0.697632 -5.229300
						CHANNELS 3 Xrotation Yrotation Zrotation
						JOINT mixamorig:LeftForeArm
						{
							OFFSET 54.684776 0.000000 0.000000
							CHANNELS 3 Xrotation Yrotation Zrotation
							JOINT mixamorig:LeftHand
							{
								OFFSET 55.098175 0.000000 0.000000
								CHANNELS 3 Xrotation Yrotation Zrotation
								JOINT mixamorig:LeftHandMiddle1
								{
									OFFSET 23.369751 0.000000 0.000000
									CHANNELS 3 Xrotation Yrotation Zrotation
									JOINT mixamorig:LeftHandMiddle2
									{
										OFFSET 6.378677 0.000000 0.000000
										CHANNELS 3 Xrotation Yrotation Zrotation
										JOINT mixamorig:LeftHandMiddle3
										{
											OFFSET 6.148331 0.000000 0.000000
											CHANNELS 3 Xrotation Yrotation Zrotation
											JOINT mixamorig:LeftHandMiddle4
											{
												OFFSET 6.582504 0.000000 0.000000
												CHANNELS 3 Xrotation Yrotation Zrotation
												End Site
												{
													OFFSET -1.168900 6.395691 1.028606
												}
											}
										}
									}
								}
								JOINT mixamorig:LeftHandThumb1
								{
									OFFSET 7.235672 -3.848206 5.434273
									CHANNELS 3 Xrotation Yrotation Zrotation
									JOINT mixamorig:LeftHandThumb2
									{
										OFFSET 6.568451 -3.792297 3.792300
										CHANNELS 3 Xrotation Yrotation Zrotation
										JOINT mixamorig:LeftHandThumb3
										{
											OFFSET 6.063080 -3.500519 3.500518
											CHANNELS 3 Xrotation Yrotation Zrotation
											JOINT mixamorig:LeftHandThumb4
											{
												OFFSET 4.793182 -2.767334 2.767349
												CHANNELS 3 Xrotation Yrotation Zrotation
												End Site
												{
													OFFSET 0.101639 6.054260 1.275483
												}
											}
										}
									}
								}
								JOINT mixamorig:LeftHandIndex1
								{
									OFFSET 23.101074 -0.309540 4.992809
									CHANNELS 3 Xrotation Yrotation Zrotation
									JOINT mixamorig:LeftHandIndex2
									{
										OFFSET 6.226883 0.000000 0.000000
										CHANNELS 3 Xrotation Yrotation Zrotation
										JOINT mixamorig:LeftHandIndex3
										{
											OFFSET 6.094330 0.000000 0.000000
											CHANNELS 3 Xrotation Yrotation Zrotation
											JOINT mixamorig:LeftHandIndex4
											{
												OFFSET 5.482605 0.000000 0.000000
												CHANNELS 3 Xrotation Yrotation Zrotation
												End Site
												{
													OFFSET -1.427902 5.233032 0.797164
												}
											}
										}
									}
								}
								JOINT mixamorig:LeftHandRing1
								{
									OFFSET 22.299240 0.021149 -3.964172
									CHANNELS 3 Xrotation Yrotation Zrotation
									JOINT mixamorig:LeftHandRing2
									{
										OFFSET 6.321869 0.000000 0.000000
										CHANNELS 3 Xrotation Yrotation Zrotation
										JOINT mixamorig:LeftHandRing3
										{
											OFFSET 5.899796 0.000000 0.000000
											CHANNELS 3 Xrotation Yrotation Zrotation
											JOINT mixamorig:LeftHandRing4
											{
												OFFSET 6.517899 0.000000 0.000000
												CHANNELS 3 Xrotation Yrotation Zrotation
												End Site
												{
													OFFSET -1.637299 6.232208 0.980890
												}
											}
										}
									}
								}
								JOINT mixamorig:LeftHandPinky1
								{
									OFFSET 20.463791 -0.302338 -8.562233
									CHANNELS 3 Xrotation Yrotation Zrotation
									JOINT mixamorig:LeftHandPinky2
									{
										OFFSET 6.908646 0.000000 0.000000
										CHANNELS 3 Xrotation Yrotation Zrotation
										JOINT mixamorig:LeftHandPinky3
										{
											OFFSET 4.622849 0.000000 0.000000
											CHANNELS 3 Xrotation Yrotation Zrotation
											JOINT mixamorig:LeftHandPinky4
											{
												OFFSET 5.216080 0.000000 0.000000
												CHANNELS 3 Xrotation Yrotation Zrotation
												End Site
												{
													OFFSET -0.606308 5.116241 0.814926
												}
											}
										}
									}
								}
							}
						}
					}
				}
				JOINT mixamorig:RightShoulder
				{
					OFFSET -12.001300 18.284088 1.348900
					CHANNELS 3 Xrotation Yrotation Zrotation
					JOINT mixamorig:RightArm
					{
						OFFSET -25.308500 -0.751312 -5.164599
						CHANNELS 3 Xrotation Yrotation Zrotation
						JOINT mixamorig:RightForeArm
						{
							OFFSET -54.684429 0.000000 0.000000
							CHANNELS 3 Xrotation Yrotation Zrotation
							JOINT mixamorig:RightHand
							{
								OFFSET -55.150291 0.000000 0.000000
								CHANNELS 3 Xrotation Yrotation Zrotation
								JOINT mixamorig:RightHandMiddle1
								{
									OFFSET -23.317566 0.000000 0.000000
									CHANNELS 3 Xrotation Yrotation Zrotation
									JOINT mixamorig:RightHandMiddle2
									{
										OFFSET -6.378403 0.000000 0.000000
										CHANNELS 3 Xrotation Yrotation Zrotation
										JOINT mixamorig:RightHandMiddle3
										{
											OFFSET -6.148193 0.000000 0.000000
											CHANNELS 3 Xrotation Yrotation Zrotation
											JOINT mixamorig:RightHandMiddle4
											{
												OFFSET -6.583389 0.000000 0.000000
												CHANNELS 3 Xrotation Yrotation Zrotation
												End Site
												{
													OFFSET 1.171692 6.395905 1.029786
												}
											}
										}
									}
								}
								JOINT mixamorig:RightHandThumb1
								{
									OFFSET -7.190521 -3.860474 5.435846
									CHANNELS 3 Xrotation Yrotation Zrotation
									JOINT mixamorig:RightHandThumb2
									{
										OFFSET -6.567429 -3.791718 3.791708
										CHANNELS 3 Xrotation Yrotation Zrotation
										JOINT mixamorig:RightHandThumb3
										{
											OFFSET -6.062469 -3.500153 3.500166
											CHANNELS 3 Xrotation Yrotation Zrotation
											JOINT mixamorig:RightHandThumb4
											{
												OFFSET -4.792618 -2.767029 2.767022
												CHANNELS 3 Xrotation Yrotation Zrotation
												End Site
												{
													OFFSET -0.100327 6.053253 1.276754
												}
											}
										}
									}
								}
								JOINT mixamorig:RightHandIndex1
								{
									OFFSET -23.048981 -0.310791 4.992554
									CHANNELS 3 Xrotation Yrotation Zrotation
									JOINT mixamorig:RightHandIndex2
									{
										OFFSET -6.227539 0.000000 0.000000
										CHANNELS 3 Xrotation Yrotation Zrotation
										JOINT mixamorig:RightHandIndex3
										{
											OFFSET -6.095047 0.000000 0.000000
											CHANNELS 3 Xrotation Yrotation Zrotation
											JOINT mixamorig:RightHandIndex4
											{
												OFFSET -5.484772 0.000000 0.000000
												CHANNELS 3 Xrotation Yrotation Zrotation
												End Site
												{
													OFFSET 1.420593 5.237305 0.797056
												}
											}
										}
									}
								}
								JOINT mixamorig:RightHandRing1
								{
									OFFSET -22.246323 0.020569 -3.963762
									CHANNELS 3 Xrotation Yrotation Zrotation
									JOINT mixamorig:RightHandRing2
									{
										OFFSET -6.322128 0.000000 0.000000
										CHANNELS 3 Xrotation Yrotation Zrotation
										JOINT mixamorig:RightHandRing3
										{
											OFFSET -5.900024 0.000000 0.000000
											CHANNELS 3 Xrotation Yrotation Zrotation
											JOINT mixamorig:RightHandRing4
											{
												OFFSET -6.518356 0.000000 0.000000
												CHANNELS 3 Xrotation Yrotation Zrotation
												End Site
												{
													OFFSET 1.636398 6.232697 0.982186
												}
											}
										}
									}
								}
								JOINT mixamorig:RightHandPinky1
								{
									OFFSET -20.411011 -0.303314 -8.561701
									CHANNELS 3 Xrotation Yrotation Zrotation
									JOINT mixamorig:RightHandPinky2
									{
										OFFSET -6.907349 0.000000 0.000000
										CHANNELS 3 Xrotation Yrotation Zrotation
										JOINT mixamorig:RightHandPinky3
										{
											OFFSET -4.623840 0.000000 0.000000
											CHANNELS 3 Xrotation Yrotation Zrotation
											JOINT mixamorig:RightHandPinky4
											{
												OFFSET -5.218353 0.000000 0.000000
												CHANNELS 3 Xrotation Yrotation Zrotation
												End Site
												{
													OFFSET 0.602097 5.118835 0.816273
												}
											}
										}
									}
								}
							}
						}
					}
				}
			}
		}
	}
	JOINT mixamorig:LeftUpLeg
	{
		OFFSET 18.168400 -13.561905 -0.039000
		CHANNELS 3 Xrotation Yrotation Zrotation
		JOINT mixamorig:LeftLeg
		{
			OFFSET 0.577358 -80.825211 -3.695000
			CHANNELS 3 Xrotation Yrotation Zrotation
			JOINT mixamorig:LeftFoot
			{
				OFFSET -0.577356 -83.370262 -6.520700
				CHANNELS 3 Xrotation Yrotation Zrotation
				JOINT mixamorig:LeftToeBase
				{
					OFFSET 0.750401 -20.798306 25.135401
					CHANNELS 3 Xrotation Yrotation Zrotation
					JOINT mixamorig:LeftToe_End
					{
						OFFSET -0.000500 0.001200 19.917799
						CHANNELS 3 Xrotation Yrotation Zrotation
						End Site
						{
							OFFSET 0.000000 19.917805 0.000000
						}
					}
				}
			}
		}
	}
	JOINT mixamorig:RightUpLeg
	{
		OFFSET -18.162500 -13.585098 -0.041000
		CHANNELS 3 Xrotation Yrotation Zrotation
		JOINT mixamorig:RightLeg
		{
			OFFSET -0.595024 -80.945297 -3.631900
			CHANNELS 3 Xrotation Yrotation Zrotation
			JOINT mixamorig:RightFoot
			{
				OFFSET 0.595024 -83.218193 -6.561200
				CHANNELS 3 Xrotation Yrotation Zrotation
				JOINT mixamorig:RightToeBase
				{
					OFFSET -0.753601 -20.807106 25.115000
					CHANNELS 3 Xrotation Yrotation Zrotation
					JOINT mixamorig:RightToe_End
					{
						OFFSET 0.000299 0.001700 19.918200
						CHANNELS 3 Xrotation Yrotation Zrotation
						End Site
						{
							OFFSET 0.000000 19.918203 0.000000
						}
					}
				}
			}
		}
	}
}
MOTION
Frames: 4
Frame Time: 0.033333
19.623697 155.195374 101.588043 -14.778793 -41.794853 -9.044263 23.764223 5.293082 -10.203260 0.474810 0.884491 0.299905 0.463204 0.921861 0.278780 4.133766 13.113496 1.206964 1.178372 20.843074 -6.072689 -0.000000 -0.000000 -0.000000 -0.000000 -0.000000 -0.000000 -0.000000 -0.000000 -0.000000 0.735850 2.819935 -7.251392 -55.321285 2.261777 -44.376439 0.000041 -113.633591 0.000032 -8.583091 -11.869925 -10.849942 -0.461471 3.841591 -39.722686 6.450744 5.820347 -95.892864 2.182894 4.561565 -51.127750 -0.000000 0.000000 -0.000003 -6.141201 -11.690807 -6.761680 9.914084 42.595522 3.409854 -0.422800 8.108104 27.509106 -0.000002 -0.000001 0.000002 0.255316 3.378214 -45.814331 5.654079 5.847750 -88.067455 2.162146 4.544817 -50.866379 -0.000001 0.000001 -0.000001 0.469734 4.966841 -39.799444 8.181050 5.368627 -113.503004 3.200487 5.218119 -63.022989 -0.000002 -0.000001 -0.000002 -3.762421 9.063696 -45.253832 5.342530 5.828991 -85.005311 8.716854 5.103341 -119.369208 -0.000001 0.000000 0.000001 2.769134 13.681911 -5.921059 -45.014792 22.084522 84.245561 0.000051 114.580057 -0.000043 1.982501 21.034592 7.268864 -0.761627 -2.932900 39.031041 5.133898 -4.632772 95.881670 1.739737 -3.631693 51.181350 0.000002 0.000000 0.000004 -7.341104 13.749660 7.412313 9.855793 -44.489079 -3.903227 -0.115784 -14.513071 -28.973881 -0.000004 -0.000001 -0.000002 -0.124383 -2.384778 45.108871 4.500569 -4.654520 88.071157 1.723213 -3.618366 50.920088 -0.000003 0.000000 -0.000001 0.154755 -4.068821 39.122658 6.509730 -4.273602 113.462870 2.549574 -4.153905 63.067324 -0.000002 -0.000004 0.000002 -4.198883 -8.025506 44.637766 4.252922 -4.639626 85.014846 6.935959 -4.062616 119.322285 0.000000 0.000000 -0.000000 -47.119067 0.525240 27.348542 61.332012 -5.468772 6.993181 -5.633929 -10.281947 -21.762578 -0.000046 0.000000 -0.000006 -0.000000 -0.000003 -0.000000 -30.959154 -2.526142 -37.896085 80.568126 8.637271 -9.988390 -4.349949 -6.546820 14.794475 -19.521662 -1.552435 11.209893 -0.000001 0.000001 0.000000 
16.189018 157.083008 95.026779 -13.260760 -41.661739 -6.977957 20.314125 6.596344 -8.209958 1.176212 1.030442 -0.415714 1.173065 1.043806 -0.426574 4.947477 13.039633 0.202191 2.043263 20.039152 -6.165670 0.000001 0.000000 -0.000000 0.000001 0.000000 -0.000000 0.000001 0.000000 -0.000000 0.721470 3.511690 -7.550297 -53.634115 2.307653 -44.369705 0.000006 -114.599263 0.000006 -8.763054 -10.111818 -10.874173 -0.461470 3.841591 -39.722686 6.450742 5.820347 -95.892864 2.182896 4.561566 -51.127746 0.000001 -0.000001 0.000000 -6.141203 -11.690805 -6.761676 9.914082 42.595522 3.409852 -0.422802 8.108099 27.509115 0.000001 0.000003 -0.000002 0.255315 3.378216 -45.814341 5.654078 5.847746 -88.067455 2.162144 4.544818 -50.866382 0.000000 0.000001 -0.000002 0.469733 4.966842 -39.799444 8.181044 5.368627 -113.503004 3.200487 5.218118 -63.022996 -0.000002 -0.000001 0.000001 -3.762423 9.063698 -45.253832 5.342527 5.828994 -85.005311 8.716852 5.103339 -119.369208 -0.000001 0.000000 -0.000001 2.828174 14.381342 -6.072641 -45.794120 21.232531 84.803041 0.000110 114.381879 -0.000109 0.601326 19.558750 8.356953 -0.761631 -2.932900 39.031044 5.133894 -4.632771 95.881670 1.739737 -3.631693 51.181346 0.000000 0.000001 0.000001 -7.341104 13.749657 7.412308 9.855795 -44.489076 -3.903228 -0.115777 -14.513071 -28.973884 -0.000003 -0.000001 -0.000002 -0.124385 -2.384785 45.108861 4.500568 -4.654522 88.071150 1.723214 -3.618367 50.920092 -0.000002 -0.000001 -0.000002 0.154754 -4.068821 39.122658 6.509729 -4.273605 113.462870 2.549576 -4.153905 63.067317 0.000001 -0.000000 0.000000 -4.198883 -8.025510 44.637766 4.252925 -4.639630 85.014846 6.935958 -4.062613 119.322285 0.000000 -0.000000 0.000001 -45.092479 1.520009 27.682728 53.254094 -6.402992 6.924821 -1.192858 -10.634781 -23.883553 -0.000029 0.000017 0.000007 0.000000 0.000000 -0.000000 -28.904872 -4.396144 -36.249395 77.899086 8.801712 -9.475211 -14.050216 -11.759240 17.643642 -15.642902 -0.251333 4.639080 0.000000 0.000001 -0.000001 
13.245863 158.883728 88.055893 -10.863864 -40.657459 -4.564594 16.928837 7.321544 -6.164745 1.749612 1.093389 -1.133014 1.757919 1.087209 -1.131149 5.439776 12.918581 -0.624054 2.430966 18.878732 -5.862867 -0.000001 0.000000 0.000000 -0.000001 0.000000 0.000000 -0.000001 0.000000 0.000000 0.717779 3.881342 -7.741684 -53.739560 1.839702 -44.584750 0.000176 -114.628223 0.000200 -8.115486 -8.702289 -11.788584 -0.461471 3.841592 -39.722686 6.450746 5.820346 -95.892864 2.182897 4.561565 -51.127743 -0.000001 -0.000001 0.000000 -6.141201 -11.690806 -6.761676 9.914079 42.595522 3.409848 -0.422808 8.108105 27.509113 -0.000002 0.000002 -0.000002 0.255316 3.378215 -45.814341 5.654078 5.847749 -88.067448 2.162146 4.544817 -50.866379 -0.000001 0.000000 -0.000002 0.469733 4.966843 -39.799444 8.181046 5.368625 -113.503004 3.200484 5.218114 -63.022989 -0.000002 0.000000 0.000001 -3.762422 9.063698 -45.253832 5.342529 5.828992 -85.005311 8.716852 5.103339 -119.369208 0.000000 0.000001 0.000001 2.587767 14.803959 -6.450538 -47.081358 20.293554 84.717985 0.000021 114.334676 -0.000035 -1.232406 18.180541 9.355147 -0.761628 -2.932901 39.031037 5.133895 -4.632774 95.881670 1.739738 -3.631691 51.181346 0.000001 0.000000 0.000003 -7.341107 13.749661 7.412307 9.855797 -44.489076 -3.903229 -0.115782 -14.513073 -28.973881 -0.000002 0.000001 -0.000002 -0.124384 -2.384782 45.108864 4.500567 -4.654519 88.071150 1.723216 -3.618367 50.920088 -0.000000 0.000001 -0.000004 0.154756 -4.068822 39.122661 6.509730 -4.273604 113.462870 2.549576 -4.153906 63.067324 -0.000000 -0.000001 -0.000000 -4.198881 -8.025512 44.637766 4.252922 -4.639631 85.014846 6.935957 -4.062614 119.322285 0.000000 0.000000 0.000001 -44.242192 1.970055 27.248377 46.496004 -6.782827 6.384546 1.188444 -11.244637 -25.213193 2.414432 0.000016 -0.000001 0.000000 0.000002 -0.000000 -27.644016 -6.488865 -35.267149 74.416106 6.667216 -6.765560 -24.548921 -13.926232 16.868257 -8.598547 0.000023 -0.000001 0.000000 0.000001 -0.000000 
11.148506 161.583603 80.479370 -8.485111 -39.353658 -2.165610 15.185560 7.302315 -5.272085 1.932193 1.078351 -1.612246 1.948953 1.060972 -1.603972 5.324491 12.780659 -1.036876 2.423629 17.745170 -5.561995 -0.000001 -0.000000 -0.000000 -0.000001 -0.000000 -0.000000 -0.000001 -0.000000 -0.000000 0.732057 3.807418 -7.736901 -55.438101 1.569544 -44.911414 0.000045 -113.909394 0.000049 -7.017384 -8.714654 -12.412846 -0.461473 3.841590 -39.722686 6.450745 5.820343 -95.892857 2.182897 4.561566 -51.127750 -0.000001 0.000001 -0.000004 -6.141202 -11.690805 -6.761678 9.914084 42.595515 3.409847 -0.422804 8.108106 27.509115 0.000004 -0.000002 0.000001 0.255315 3.378216 -45.814331 5.654078 5.847750 -88.067448 2.162148 4.544818 -50.866382 -0.000001 -0.000000 0.000006 0.469731 4.966843 -39.799441 8.181046 5.368626 -113.502998 3.200484 5.218117 -63.022989 -0.000002 0.000001 -0.000000 -3.762422 9.063698 -45.253832 5.342528 5.828993 -85.005311 8.716851 5.103338 -119.369208 -0.000001 -0.000001 0.000000 1.981645 14.780034 -7.095266 -48.420488 20.122501 84.106826 -0.000024 114.536234 0.000023 -2.335419 17.924522 9.739001 -0.761630 -2.932899 39.031041 5.133893 -4.632770 95.881670 1.739736 -3.631692 51.181346 0.000001 -0.000000 0.000002 -7.341105 13.749661 7.412312 9.855794 -44.489079 -3.903235 -0.115779 -14.513066 -28.973881 -0.000002 -0.000001 -0.000002 -0.124384 -2.384782 45.108864 4.500569 -4.654519 88.071150 1.723216 -3.618366 50.920085 0.000001 0.000001 0.000001 0.154755 -4.068818 39.122654 6.509731 -4.273605 113.462877 2.549575 -4.153903 63.067324 0.000000 0.000001 0.000003 -4.198883 -8.025509 44.637772 4.252923 -4.639630 85.014846 6.935957 -4.062614 119.322285 0.000001 -0.000000 -0.000000 -44.739334 2.201392 25.575654 44.620202 -6.542341 5.255892 -1.283335 -10.679496 -23.908314 1.158458 -0.000001 0.000004 0.000000 -0.000001 0.000000 -28.197405 -7.966054 -34.370273 71.493974 4.530854 -3.907609 -29.888713 -14.155872 14.915767 -1.446303 -0.000240 0.145193 0.000000 0.000002 -0.000000 
